<?xml version="1.0" encoding="UTF-8" standalone="no"?>
<!-- Created with Inkscape (http://www.inkscape.org/) -->

<svg
   width="180"
   height="50"
   viewBox="0 0 47.624999 13.229167"
   version="1.1"
   id="svg5"
   inkscape:version="1.2.1 (9c6d41e, 2022-07-14)"
   xml:space="preserve"
   sodipodi:docname="logo-animoo.svg"
   xmlns:inkscape="http://www.inkscape.org/namespaces/inkscape"
   xmlns:sodipodi="http://sodipodi.sourceforge.net/DTD/sodipodi-0.dtd"
   xmlns="http://www.w3.org/2000/svg"
   xmlns:svg="http://www.w3.org/2000/svg"><sodipodi:namedview
     id="namedview7"
     pagecolor="#ffffff"
     bordercolor="#666666"
     borderopacity="1.0"
     inkscape:showpageshadow="false"
     inkscape:pageopacity="0"
     inkscape:pagecheckerboard="false"
     inkscape:deskcolor="#ffffff"
     inkscape:document-units="px"
     showgrid="false"
     inkscape:zoom="0.21024131"
     inkscape:cx="261.60415"
     inkscape:cy="568.39448"
     inkscape:window-width="1440"
     inkscape:window-height="847"
     inkscape:window-x="0"
     inkscape:window-y="25"
     inkscape:window-maximized="1"
     inkscape:current-layer="layer1" /><defs
     id="defs2" /><g
     inkscape:label="Layer 1"
     inkscape:groupmode="layer"
     id="layer1"><g
       id="g94354"
       transform="matrix(0.97086249,0,0,0.97086249,-1320.5696,-1715.2014)"><path
         d="m 1362.1138,1768.4643 v -1.786 h 3.5719 v 1.786 h 1.7859 v 7.1437 h -1.7859 v -1.7859 h -3.5719 v 1.7859 h -1.7859 v -7.1437 z m 3.5719,3.5719 v -3.5576 h -3.5719 v 3.5576 z"
         style="font-size:14.2875px;line-height:1.25;font-family:'04b03';-inkscape-font-specification:'04b03, Normal';fill:#ffffff;stroke-width:0.264583"
         id="path94322" /><path
         d="m 1374.6154,1772.0362 v 3.5718 h 1.7859 v -8.9297 h -1.7859 v 3.5719 h -1.786 v 1.786 z m -3.5719,-1.786 h 1.7859 v -1.7859 h -1.7859 v -1.786 h -1.786 v 8.9297 h 1.786 z"
         style="font-size:14.2875px;line-height:1.25;font-family:'04b03';-inkscape-font-specification:'04b03, Normal';fill:#ffffff;stroke-width:0.264583"
         id="path94324" /><path
         d="m 1384.1284,1768.4643 v -1.786 h -1.786 v 8.9297 h 1.786 v -5.3578 h 1.7859 v -1.7859 z m 1.7859,3.5719 h 1.7859 v -1.786 h -1.7859 z m 3.5719,-3.5719 h -1.786 v 1.7859 h 1.786 v 5.3578 h 1.7859 v -8.9297 h -1.7859 z"
         style="font-size:14.2875px;line-height:1.25;font-family:'04b03';-inkscape-font-specification:'04b03, Normal';fill:#ffffff;stroke-width:0.264583"
         id="path94328" /><path
         d="m 1398.4158,1773.8078 v -5.3292 h -3.5718 v 5.3292 z m -3.5718,0.014 h -1.786 v -5.3578 h 1.786 v -1.786 h 3.5718 v 1.786 h 1.786 v 5.3578 h -1.786 v 1.7859 h -3.5718 z"
         style="font-size:14.2875px;line-height:1.25;font-family:'04b03';-inkscape-font-specification:'04b03, Normal';fill:#ffffff;stroke-width:0.264583"
         id="path94330" /><path
         d="m 1407.3455,1773.8078 v -5.3292 h -3.5719 v 5.3292 z m -3.5719,0.014 h -1.7859 v -5.3578 h 1.7859 v -1.786 h 3.5719 v 1.786 h 1.7859 v 5.3578 h -1.7859 v 1.7859 h -3.5719 z"
         style="font-size:14.2875px;line-height:1.25;font-family:'04b03';-inkscape-font-specification:'04b03, Normal';fill:#ffffff;stroke-width:0.264583"
         id="path94332" /><g
         aria-label="W"
         id="text94307"
         style="font-size:14.2875px;line-height:1.25;fill:#ff0081;fill-opacity:1;stroke-width:0.264583"
         transform="translate(-2.9882794)"><path
           d="m 1401.3415,1776.7619 h -1.786 v 1.7564 h 1.786 z m 3.5719,0 h -1.786 v 1.7564 h 1.786 z m -3.5719,3.5423 h 1.7859 v -1.7859 h -1.7859 z m 3.5719,0 h 1.7859 v -1.7859 h -1.7859 z m 1.7859,-3.5423 v 1.7564 h 1.7859 v -1.7564 z"
           style="font-family:'04b03';-inkscape-font-specification:'04b03, Normal';fill:#ff0081;fill-opacity:1"
           id="path94309"
           sodipodi:nodetypes="ccccccccccccccccccccccccc" /></g><text
         xml:space="preserve"
         style="font-style:normal;font-weight:normal;font-size:14.2875px;line-height:1.25;font-family:sans-serif;fill:#ffffff;fill-opacity:1;stroke:none;stroke-width:0.264583"
         x="1378.3856"
         y="1775.608"
         id="text94337"><tspan
           sodipodi:role="line"
           id="tspan94335"
           style="font-style:normal;font-variant:normal;font-weight:normal;font-stretch:normal;font-size:14.2875px;font-family:'04b03';-inkscape-font-specification:'04b03, Normal';font-variant-ligatures:normal;font-variant-caps:normal;font-variant-numeric:normal;font-variant-east-asian:normal;fill:#ffffff;stroke-width:0.264583"
           x="1378.3856"
           y="1775.608">i</tspan></text></g></g></svg>
