<?xml version="1.0" encoding="UTF-8" standalone="no"?>
<!-- Created with Inkscape (http://www.inkscape.org/) -->

<svg
   width="447"
   height="140"
   viewBox="0 0 118.26875 37.041666"
   version="1.1"
   id="svg5"
   inkscape:version="1.2.1 (9c6d41e, 2022-07-14)"
   xml:space="preserve"
   sodipodi:docname="logo-evas-white.svg"
   xmlns:inkscape="http://www.inkscape.org/namespaces/inkscape"
   xmlns:sodipodi="http://sodipodi.sourceforge.net/DTD/sodipodi-0.dtd"
   xmlns="http://www.w3.org/2000/svg"
   xmlns:svg="http://www.w3.org/2000/svg"><sodipodi:namedview
     id="namedview7"
     pagecolor="#ffffff"
     bordercolor="#666666"
     borderopacity="1.0"
     inkscape:showpageshadow="false"
     inkscape:pageopacity="0"
     inkscape:pagecheckerboard="false"
     inkscape:deskcolor="#ffffff"
     inkscape:document-units="px"
     showgrid="false"
     inkscape:zoom="0.21024131"
     inkscape:cx="261.60415"
     inkscape:cy="568.39448"
     inkscape:window-width="1440"
     inkscape:window-height="847"
     inkscape:window-x="0"
     inkscape:window-y="25"
     inkscape:window-maximized="1"
     inkscape:current-layer="layer1" /><defs
     id="defs2" /><g
     inkscape:label="Layer 1"
     inkscape:groupmode="layer"
     id="layer1"><g
       id="g33471"
       transform="matrix(1.2955468,0,0,1.2955468,-160.45826,1042.0133)"><path
         id="rect28030"
         style="opacity:1;fill:#0f643a;fill-opacity:1;stroke:none;stroke-width:0.886905;stroke-linecap:round;stroke-linejoin:round;stroke-miterlimit:10;paint-order:fill markers stroke"
         d="m 405.59118,845.8891 1.5e-4,-0.0212 1.1e-4,-20.68441 -4e-4,-9.34247 h 5.80017 l -1.2e-4,9.34247 4.1e-4,20.68441 -1.6e-4,0.0212 z"
         transform="matrix(1,0,-0.30968739,-0.95083843,0,0)" /><path
         id="rect27611"
         style="opacity:1;fill:#21d57b;stroke-width:0.886905;stroke-linecap:round;stroke-linejoin:round;stroke-miterlimit:10;paint-order:fill markers stroke"
         d="m -99.706604,-845.86761 h 5.80004 v 30.04832 h -5.80004 z"
         transform="matrix(1,0,-0.30968739,0.95083843,0,0)" /><path
         id="path29374"
         style="opacity:1;fill:#0f643a;fill-opacity:1;stroke:none;stroke-width:0.864829;stroke-linecap:round;stroke-linejoin:round;stroke-miterlimit:10;paint-order:fill markers stroke"
         d="m 172.83131,-804.28319 2.90009,8.90384 6.39857,19.64635 h 5.80016 l -9.29866,-28.55019 z" /><path
         id="rect29376"
         style="opacity:1;fill:#21d57b;stroke-width:0.886905;stroke-linecap:round;stroke-linejoin:round;stroke-miterlimit:10;paint-order:fill markers stroke"
         d="m -89.123276,-845.86761 h 5.80004 v 30.04832 h -5.80004 z"
         transform="matrix(1,0,-0.30968739,0.95083843,0,0)" /><g
         id="g32726"><path
           id="path32070-9"
           style="font-weight:600;font-size:40.8743px;line-height:1.25;font-family:Poppins;-inkscape-font-specification:'Poppins Semi-Bold';letter-spacing:-1.20218px;fill:#ffffff;fill-opacity:1;stroke-width:1.20305"
           d="m 129.64581,-781.02441 h -5.72265 v 5.29167 h 21.8457 v -5.29167 z"
           sodipodi:nodetypes="cccccc" /><path
           id="path32285-9"
           style="font-weight:600;font-size:40.8743px;line-height:1.25;font-family:Poppins;-inkscape-font-specification:'Poppins Semi-Bold';letter-spacing:-1.20218px;fill:#ffffff;fill-opacity:1;stroke-width:1.04726"
           d="m 128.25962,-804.30368 h -4.33646 v 5.29167 h 15.4957 v -5.29167 z"
           sodipodi:nodetypes="cccccc" /><path
           id="path32287-4"
           style="font-weight:600;font-size:40.8743px;line-height:1.25;font-family:Poppins;-inkscape-font-specification:'Poppins Semi-Bold';letter-spacing:-1.20218px;fill:#ffffff;fill-opacity:1;stroke-width:0.850689"
           d="m 126.78449,-792.66408 h -2.86133 v 5.29167 h 12.51035 v -5.29167 z"
           sodipodi:nodetypes="cccccc" /></g><path
         id="path32327-7"
         style="font-weight:bold;font-size:40.8743px;line-height:1.25;font-family:Poppins;-inkscape-font-specification:'Poppins Bold';letter-spacing:-1.20218px;fill:#ffffff;stroke:#ffffff;stroke-width:0.536085;stroke-dasharray:none;stroke-opacity:1"
         d="m 198.01509,-804.03567 c -1.74811,0 -3.23612,0.35308 -4.46352,1.05977 -1.20881,0.7067 -2.12027,1.66481 -2.73397,2.87362 -0.5951,1.2274 -0.8922,2.61277 -0.8922,4.15631 0,1.54356 0.30644,2.93825 0.92013,4.18422 0.61369,1.26461 1.52516,2.2689 2.73396,3.01276 1.20881,0.7439 2.68749,1.11563 4.4356,1.11563 h 3.77141 1.15676 3.79932 c 1.17162,0 2.07375,0.28827 2.70603,0.86479 0.63233,0.57651 0.94858,1.42264 0.94858,2.53846 0,1.11582 -0.31625,1.97131 -0.94858,2.5664 -0.63228,0.5951 -1.53441,0.89271 -2.70603,0.89271 h -15.35575 v 4.77024 h 15.32833 c 1.74813,0 3.2263,-0.37175 4.43509,-1.11563 1.2088,-0.74388 2.12028,-1.74814 2.73397,-3.01274 0.61372,-1.24601 0.92064,-2.6407 0.92064,-4.18426 0,-1.54355 -0.2976,-2.92941 -0.89271,-4.15681 -0.61369,-1.20881 -1.52518,-2.16639 -2.73397,-2.8731 -1.22743,-0.7067 -2.71489,-1.05977 -4.46302,-1.05977 h -3.7719 -1.15676 -3.79934 c -1.17163,0 -2.07373,-0.29761 -2.70602,-0.89272 -0.63233,-0.59508 -0.94859,-1.45056 -0.94859,-2.56639 0,-1.11582 0.31626,-1.96198 0.94859,-2.53847 0.63229,-0.57653 1.53439,-0.86479 2.70602,-0.86479 h 15.35575 v -4.77022 z" /></g></g></svg>
